<svg width="40" height="40" viewBox="0 0 40 40" fill="none" xmlns="http://www.w3.org/2000/svg">
<circle cx="20" cy="20" r="16.9412" stroke="#B1B7C3" stroke-width="2.11765"/>
<path d="M20.0001 34.0001C22.769 34.0001 25.4758 33.1791 27.7781 31.6407C30.0804 30.1024 31.8748 27.9158 32.9344 25.3577C33.9941 22.7995 34.2713 19.9845 33.7311 17.2688C33.1909 14.5531 31.8576 12.0585 29.8996 10.1005C27.9417 8.14259 25.4471 6.80921 22.7313 6.26901C20.0156 5.72882 17.2007 6.00607 14.6425 7.0657C12.0843 8.12533 9.89778 9.91975 8.35944 12.2221C6.82109 14.5244 6 17.2311 6 20.0001C6 23.7131 7.475 27.2741 10.1005 29.8996C12.726 32.5251 16.287 34.0001 20.0001 34.0001Z" fill="#B1B7C3"/>
<path d="M23.8302 22.2265C23.8302 20.1849 22.5877 19.4965 20.1843 19.1669C18.4081 18.9103 18.0668 18.4932 18.0668 17.6648C18.0668 16.8365 18.6677 16.3203 19.8168 16.3203C20.8639 16.3203 21.4677 16.6848 21.7156 17.5278C21.7419 17.62 21.7973 17.7013 21.8734 17.7596C21.9496 17.818 22.0426 17.8502 22.1385 17.8515H23.0573C23.1173 17.8528 23.1768 17.8408 23.2317 17.8164C23.2865 17.792 23.3353 17.7558 23.3746 17.7104C23.4138 17.665 23.4426 17.6115 23.4588 17.5537C23.4751 17.496 23.4784 17.4353 23.4685 17.3761C23.1768 16.0432 22.2785 15.2411 20.8697 14.9902V13.5844C20.8697 13.4684 20.8237 13.3571 20.7416 13.275C20.6596 13.193 20.5483 13.1469 20.4322 13.1469H19.5572C19.4412 13.1469 19.3299 13.193 19.2479 13.275C19.1658 13.3571 19.1197 13.4684 19.1197 13.5844V14.9407C17.3697 15.1857 16.2643 16.3407 16.2643 17.8223C16.2643 19.7386 17.431 20.4824 19.8693 20.8119C21.5289 21.0832 22.0014 21.4419 22.0014 22.384C22.0014 23.3261 21.1993 23.959 20.0677 23.959C18.5422 23.959 18.026 23.2911 17.8539 22.4249C17.8339 22.3255 17.7804 22.2359 17.7024 22.1712C17.6244 22.1064 17.5265 22.0704 17.4251 22.069H16.4276C16.3681 22.0686 16.3092 22.0813 16.2551 22.106C16.201 22.1308 16.1529 22.1671 16.1143 22.2124C16.0757 22.2577 16.0474 22.3109 16.0315 22.3682C16.0156 22.4256 16.0124 22.4857 16.0222 22.5445C16.276 24.0028 17.2122 25.0703 19.1197 25.327V26.7095C19.1197 26.8255 19.1658 26.9368 19.2479 27.0188C19.3299 27.1009 19.4412 27.147 19.5572 27.147H20.4322C20.5483 27.147 20.6596 27.1009 20.7416 27.0188C20.8237 26.9368 20.8697 26.8255 20.8697 26.7095V25.327C22.6781 25.0411 23.8302 23.7928 23.8302 22.2265Z" fill="white"/>
<path d="M16.9932 28.3659C15.3079 27.7505 13.8526 26.6319 12.8243 25.1617C11.796 23.6915 11.2445 21.9408 11.2445 20.1467C11.2445 18.3526 11.796 16.6018 12.8243 15.1316C13.8526 13.6614 15.3079 12.5429 16.9932 11.9275C17.1013 11.88 17.1938 11.8032 17.2603 11.7058C17.3268 11.6083 17.3647 11.4941 17.3695 11.3762V10.5596C17.3765 10.4872 17.3643 10.4143 17.3342 10.3482C17.3042 10.2821 17.2572 10.225 17.1981 10.1827C17.139 10.1405 17.0698 10.1145 16.9975 10.1074C16.9252 10.1004 16.8523 10.1125 16.7861 10.1425C14.6638 10.8189 12.8116 12.1527 11.4973 13.9511C10.183 15.7494 9.47461 17.9192 9.47461 20.1467C9.47461 22.3742 10.183 24.5439 11.4973 26.3423C12.8116 28.1407 14.6638 29.4745 16.7861 30.1509C16.8523 30.1809 16.9252 30.193 16.9975 30.1859C17.0698 30.1789 17.139 30.1529 17.1981 30.1106C17.2572 30.0684 17.3042 30.0113 17.3342 29.9452C17.3643 29.879 17.3765 29.8061 17.3695 29.7338V28.9171C17.3647 28.7992 17.3268 28.6851 17.2603 28.5876C17.1938 28.4901 17.1013 28.4133 16.9932 28.3659Z" fill="white"/>
<path d="M23.203 10.1425C23.1368 10.1124 23.0639 10.1004 22.9916 10.1074C22.9193 10.1145 22.8501 10.1405 22.791 10.1827C22.7319 10.225 22.6849 10.2821 22.6548 10.3482C22.6248 10.4143 22.6126 10.4872 22.6196 10.5595V11.3762C22.6244 11.4941 22.6622 11.6083 22.7288 11.7058C22.7953 11.8032 22.8878 11.88 22.9959 11.9275C24.6811 12.5429 26.1365 13.6614 27.1648 15.1316C28.1931 16.6018 28.7446 18.3526 28.7446 20.1467C28.7446 21.9408 28.1931 23.6915 27.1648 25.1617C26.1365 26.6319 24.6811 27.7505 22.9959 28.3659C22.8843 28.4082 22.7884 28.4838 22.7211 28.5824C22.6538 28.681 22.6184 28.7978 22.6196 28.9171V29.7338C22.6126 29.8061 22.6248 29.879 22.6548 29.9452C22.6849 30.0113 22.7319 30.0684 22.791 30.1106C22.8501 30.1529 22.9193 30.1788 22.9916 30.1859C23.0639 30.193 23.1368 30.1809 23.203 30.1509C25.3252 29.4745 27.1774 28.1407 28.4918 26.3423C29.8061 24.5439 30.5145 22.3741 30.5145 20.1467C30.5145 17.9192 29.8061 15.7494 28.4918 13.9511C27.1774 12.1527 25.3252 10.8189 23.203 10.1425Z" fill="white"/>
</svg>
