<svg width="40" height="40" viewBox="0 0 40 40" fill="none" xmlns="http://www.w3.org/2000/svg">
<g clip-path="url(#clip0_1169_1050)">
<circle cx="20" cy="20" r="18.9412" stroke="#B1B7C3" stroke-width="2.11765"/>
<path d="M20.0001 34.0001C22.769 34.0001 25.4758 33.1791 27.7781 31.6407C30.0804 30.1024 31.8748 27.9158 32.9344 25.3577C33.9941 22.7995 34.2713 19.9845 33.7311 17.2688C33.1909 14.5531 31.8576 12.0585 29.8996 10.1005C27.9417 8.14259 25.4471 6.80921 22.7313 6.26901C20.0156 5.72882 17.2007 6.00607 14.6425 7.0657C12.0843 8.12533 9.89778 9.91975 8.35944 12.2221C6.82109 14.5244 6 17.2311 6 20.0001C6 23.7131 7.475 27.2741 10.1005 29.8996C12.726 32.5251 16.287 34.0001 20.0001 34.0001Z" fill="#0000FF"/>
<path d="M23.8304 22.2265C23.8304 20.1849 22.5879 19.4965 20.1845 19.1669C18.4083 18.9103 18.067 18.4932 18.067 17.6648C18.067 16.8365 18.6678 16.3203 19.817 16.3203C20.8641 16.3203 21.4678 16.6848 21.7158 17.5278C21.7421 17.62 21.7975 17.7013 21.8736 17.7596C21.9498 17.818 22.0428 17.8502 22.1387 17.8515H23.0574C23.1175 17.8528 23.177 17.8408 23.2318 17.8164C23.2867 17.792 23.3355 17.7558 23.3747 17.7104C23.414 17.665 23.4428 17.6115 23.459 17.5537C23.4753 17.496 23.4786 17.4353 23.4687 17.3761C23.177 16.0432 22.2787 15.2411 20.8699 14.9902V13.5844C20.8699 13.4684 20.8238 13.3571 20.7418 13.275C20.6597 13.193 20.5485 13.1469 20.4324 13.1469H19.5574C19.4414 13.1469 19.3301 13.193 19.2481 13.275C19.166 13.3571 19.1199 13.4684 19.1199 13.5844V14.9407C17.3699 15.1857 16.2645 16.3407 16.2645 17.8223C16.2645 19.7386 17.4312 20.4824 19.8695 20.8119C21.5291 21.0832 22.0016 21.4419 22.0016 22.384C22.0016 23.3261 21.1995 23.959 20.0678 23.959C18.5424 23.959 18.0262 23.2911 17.8541 22.4249C17.8341 22.3255 17.7806 22.2359 17.7026 22.1712C17.6246 22.1064 17.5267 22.0704 17.4253 22.069H16.4278C16.3683 22.0686 16.3094 22.0813 16.2553 22.106C16.2012 22.1308 16.1531 22.1671 16.1145 22.2124C16.0759 22.2577 16.0476 22.3109 16.0317 22.3682C16.0158 22.4256 16.0126 22.4857 16.0224 22.5445C16.2762 24.0028 17.2124 25.0703 19.1199 25.327V26.7095C19.1199 26.8255 19.166 26.9368 19.2481 27.0188C19.3301 27.1009 19.4414 27.147 19.5574 27.147H20.4324C20.5485 27.147 20.6597 27.1009 20.7418 27.0188C20.8238 26.9368 20.8699 26.8255 20.8699 26.7095V25.327C22.6783 25.0411 23.8304 23.7928 23.8304 22.2265Z" fill="white"/>
<path d="M16.9934 28.3659C15.3081 27.7505 13.8528 26.6319 12.8245 25.1617C11.7962 23.6915 11.2447 21.9408 11.2447 20.1467C11.2447 18.3526 11.7962 16.6018 12.8245 15.1316C13.8528 13.6614 15.3081 12.5429 16.9934 11.9275C17.1014 11.88 17.194 11.8032 17.2605 11.7058C17.327 11.6083 17.3648 11.4941 17.3696 11.3762V10.5596C17.3766 10.4872 17.3645 10.4143 17.3344 10.3482C17.3043 10.2821 17.2574 10.225 17.1983 10.1827C17.1392 10.1405 17.07 10.1145 16.9977 10.1074C16.9254 10.1004 16.8525 10.1125 16.7863 10.1425C14.664 10.8189 12.8118 12.1527 11.4975 13.9511C10.1832 15.7494 9.47479 17.9192 9.47479 20.1467C9.47479 22.3742 10.1832 24.5439 11.4975 26.3423C12.8118 28.1407 14.664 29.4745 16.7863 30.1509C16.8525 30.1809 16.9254 30.193 16.9977 30.1859C17.07 30.1789 17.1392 30.1529 17.1983 30.1106C17.2574 30.0684 17.3043 30.0113 17.3344 29.9452C17.3645 29.879 17.3766 29.8061 17.3696 29.7338V28.9171C17.3648 28.7992 17.327 28.6851 17.2605 28.5876C17.194 28.4901 17.1014 28.4133 16.9934 28.3659Z" fill="white"/>
<path d="M23.2031 10.1425C23.137 10.1124 23.0641 10.1004 22.9918 10.1074C22.9194 10.1145 22.8503 10.1405 22.7912 10.1827C22.7321 10.225 22.6851 10.2821 22.655 10.3482C22.625 10.4143 22.6128 10.4872 22.6198 10.5595V11.3762C22.6246 11.4941 22.6624 11.6083 22.7289 11.7058C22.7955 11.8032 22.888 11.88 22.9961 11.9275C24.6813 12.5429 26.1367 13.6614 27.165 15.1316C28.1933 16.6018 28.7448 18.3526 28.7448 20.1467C28.7448 21.9408 28.1933 23.6915 27.165 25.1617C26.1367 26.6319 24.6813 27.7505 22.9961 28.3659C22.8845 28.4082 22.7886 28.4838 22.7213 28.5824C22.654 28.681 22.6186 28.7978 22.6198 28.9171V29.7338C22.6128 29.8061 22.625 29.879 22.655 29.9452C22.6851 30.0113 22.7321 30.0684 22.7912 30.1106C22.8503 30.1529 22.9194 30.1788 22.9918 30.1859C23.0641 30.193 23.137 30.1809 23.2031 30.1509C25.3254 29.4745 27.1776 28.1407 28.492 26.3423C29.8063 24.5439 30.5147 22.3741 30.5147 20.1467C30.5147 17.9192 29.8063 15.7494 28.492 13.9511C27.1776 12.1527 25.3254 10.8189 23.2031 10.1425Z" fill="white"/>
</g>
<defs>
<clipPath id="clip0_1169_1050">
<rect width="40" height="40" fill="white"/>
</clipPath>
</defs>
</svg>
