<svg width="40" height="40" viewBox="0 0 40 40" fill="none" xmlns="http://www.w3.org/2000/svg">
<path d="M20 40C23.9556 40 27.8224 38.827 31.1114 36.6294C34.4004 34.4318 36.9638 31.3082 38.4776 27.6537C39.9913 23.9992 40.3874 19.9778 39.6157 16.0982C38.844 12.2186 36.9392 8.65492 34.1421 5.85787C31.3451 3.06082 27.7814 1.15601 23.9018 0.384303C20.0222 -0.387401 16.0008 0.00866572 12.3463 1.52242C8.69181 3.03617 5.56823 5.59962 3.37061 8.8886C1.17298 12.1776 0 16.0444 0 20C0 25.3043 2.10714 30.3914 5.85786 34.1421C9.60859 37.8929 14.6957 40 20 40Z" fill="#0000FF"/>
<path d="M25.4795 23.1788C25.4795 20.2622 23.7045 19.2788 20.2711 18.808C17.7336 18.4413 17.2461 17.8455 17.2461 16.6622C17.2461 15.4788 18.1045 14.7413 19.7461 14.7413C21.242 14.7413 22.1045 15.2622 22.4586 16.4663C22.4963 16.5981 22.5753 16.7143 22.6842 16.7976C22.793 16.8809 22.9258 16.9269 23.0628 16.9288H24.3753C24.461 16.9306 24.5461 16.9135 24.6245 16.8786C24.7028 16.8438 24.7725 16.7921 24.8286 16.7273C24.8847 16.6624 24.9258 16.586 24.949 16.5034C24.9722 16.4209 24.9769 16.3343 24.9628 16.2497C24.5461 14.3455 23.2628 13.1997 21.2503 12.8413V10.833C21.2503 10.6672 21.1845 10.5083 21.0673 10.3911C20.95 10.2739 20.7911 10.208 20.6253 10.208L19.3753 10.208C19.2096 10.208 19.0506 10.2739 18.9334 10.3911C18.8162 10.5083 18.7503 10.6672 18.7503 10.833V12.7705C16.2503 13.1205 14.6711 14.7705 14.6711 16.8872C14.6711 19.6247 16.3378 20.6872 19.8211 21.158C22.192 21.5455 22.867 22.058 22.867 23.4038C22.867 24.7497 21.7211 25.6538 20.1045 25.6538C17.9253 25.6538 17.1878 24.6997 16.942 23.4622C16.9134 23.3202 16.837 23.1923 16.7256 23.0998C16.6141 23.0073 16.4743 22.9558 16.3295 22.9538H14.9045C14.8194 22.9533 14.7353 22.9713 14.658 23.0067C14.5807 23.0421 14.512 23.094 14.4569 23.1587C14.4017 23.2234 14.3613 23.2993 14.3386 23.3813C14.3159 23.4632 14.3113 23.5491 14.3253 23.633C14.6878 25.7163 16.0253 27.2413 18.7503 27.608V29.583C18.7503 29.7488 18.8162 29.9077 18.9334 30.0249C19.0506 30.1422 19.2096 30.208 19.3753 30.208H20.6253C20.7911 30.208 20.95 30.1422 21.0673 30.0249C21.1845 29.9077 21.2503 29.7488 21.2503 29.583V27.608C23.8336 27.1997 25.4795 25.4163 25.4795 23.1788Z" fill="white"/>
<path d="M15.7125 31.9494C13.305 31.0703 11.2259 29.4724 9.7569 27.3721C8.28792 25.2719 7.50006 22.7708 7.50006 20.2078C7.50006 17.6448 8.28792 15.1437 9.7569 13.0435C11.2259 10.9432 13.305 9.34525 15.7125 8.46613C15.8668 8.39837 15.9991 8.28863 16.0941 8.1494C16.1891 8.01017 16.2431 7.84705 16.25 7.67863V6.51196C16.26 6.40865 16.2426 6.30452 16.1997 6.21003C16.1567 6.11554 16.0896 6.03402 16.0052 5.97365C15.9208 5.91328 15.8219 5.87618 15.7186 5.86609C15.6153 5.85599 15.5112 5.87325 15.4166 5.91613C12.3848 6.88243 9.73885 8.78786 7.86124 11.357C5.98363 13.9261 4.97168 17.0257 4.97168 20.2078C4.97168 23.3899 5.98363 26.4895 7.86124 29.0586C9.73885 31.6277 12.3848 33.5331 15.4166 34.4994C15.5112 34.5423 15.6153 34.5596 15.7186 34.5495C15.8219 34.5394 15.9208 34.5023 16.0052 34.4419C16.0896 34.3815 16.1567 34.3 16.1997 34.2055C16.2426 34.1111 16.26 34.0069 16.25 33.9036L16.25 32.7369C16.2431 32.5685 16.1891 32.4054 16.0941 32.2662C15.9991 32.1269 15.8668 32.0172 15.7125 31.9494Z" fill="white"/>
<path d="M24.5836 5.91613C24.4891 5.87325 24.385 5.85599 24.2817 5.86609C24.1784 5.87618 24.0795 5.91328 23.9951 5.97365C23.9107 6.03402 23.8436 6.11554 23.8006 6.21003C23.7577 6.30452 23.7403 6.40865 23.7503 6.51196V7.67863C23.7572 7.84705 23.8112 8.01017 23.9062 8.1494C24.0012 8.28863 24.1335 8.39837 24.2878 8.46613C26.6953 9.34525 28.7744 10.9432 30.2434 13.0435C31.7124 15.1437 32.5002 17.6448 32.5002 20.2078C32.5002 22.7708 31.7124 25.2719 30.2434 27.3721C28.7744 29.4724 26.6953 31.0703 24.2878 31.9494C24.1284 32.01 23.9914 32.1179 23.8953 32.2587C23.7992 32.3996 23.7486 32.5665 23.7503 32.7369V33.9036C23.7403 34.0069 23.7577 34.1111 23.8006 34.2055C23.8436 34.3 23.9107 34.3815 23.9951 34.4419C24.0795 34.5023 24.1784 34.5394 24.2817 34.5495C24.385 34.5596 24.4891 34.5423 24.5836 34.4994C27.6155 33.5331 30.2614 31.6277 32.1391 29.0586C34.0167 26.4895 35.0286 23.3899 35.0286 20.2078C35.0286 17.0257 34.0167 13.9261 32.1391 11.357C30.2614 8.78786 27.6155 6.88243 24.5836 5.91613Z" fill="white"/>
</svg>
